<?xml version="1.0" encoding="UTF-8"?><svg id="Layer_1" xmlns="http://www.w3.org/2000/svg" width="2260" height="1080" viewBox="0 0 2260 1080"><defs><style>.cls-1{fill:#049084;}</style></defs><path class="cls-1" d="M1024.03,500.22h0c-8.45-4.55,1.85-11.45,8.9-14.91l65.69-33.4c12.78-6.26,18.43-1.82,20.57,2.96h0c7.63,6.81-1.85,11.45-8.9,14.91l-36.08,17.66c-7.06,3.46-45.88,16.25-50.18,12.78Z"/><path class="cls-1" d="M1158.25,448.43h0c-7.17-6.64,4.6-10.42,12.35-11.8l72.45-14.02c14.03-2.5,18.49,3.27,19.42,8.41h0c5.81,8.57-4.6,10.42-12.35,11.8l-39.62,7.05c-7.75,1.38-48.87,3.04-52.24-1.45Z"/><path class="cls-1" d="M1304.54,426.4h0c-6.22-7.73,5.93-9.54,13.78-9.63l73.58-1.95c14.22-.16,17.87,6.27,18.12,11.5h0c4.63,9.42-5.93,9.54-13.78,9.63l-40.16,.46c-7.86,.09-48.79-5.02-51.54-10.01Z"/><path class="cls-1" d="M875.57,538.57h0c-7.42-5.84,3.7-11.26,11.11-13.7l69.18-23.89c13.42-4.4,18.15,.91,19.42,6.04h0c6.25,8-3.7,11.26-11.11,13.7l-37.88,12.43c-7.41,2.43-47.13,9.56-50.72,5.42Z"/><path class="cls-1" d="M738.18,579.3h0c-7.31-5.96,3.88-11.23,11.32-13.55l69.43-22.89c13.46-4.21,18.09,1.18,19.28,6.34h0c6.1,8.11-3.88,11.23-11.32,13.55l-38.01,11.89c-7.43,2.32-47.19,8.87-50.7,4.66Z"/><path class="cls-1" d="M79.59,558.39h0c.83-9.72,11.3-5.52,17.29-1.87l56.92,33.3c10.85,6.63,9.01,13.99,5.45,18.68h0c-3.25,10.44-11.3,5.52-17.29,1.87l-30.64-18.71c-5.99-3.66-33.23-27.6-31.74-33.27Z"/><path class="cls-1" d="M190.74,624.91h0c-1.88-9.27,9.74-7.95,16.74-6.02l66.1,16.97c12.68,3.49,12.89,10.81,10.64,16.07h0c-.33,10.54-9.74,7.95-16.74,6.02l-35.8-9.86c-7-1.93-40.86-17.52-40.95-23.17Z"/><path class="cls-1" d="M318.07,654.52h0c-4.62-8.09,7.34-9.93,14.88-9.98l70.84-1.7c13.66-.1,16.04,6.62,15.36,12.08h0c2.79,9.85-7.34,9.93-14.88,9.98l-38.56,.29c-7.54,.06-45.88-5.46-47.64-10.67Z"/><path class="cls-1" d="M452.76,648.93h0c-7.05-6.22,4.28-11.14,11.77-13.23l69.94-20.69c13.55-3.78,17.96,1.78,18.95,7h0c5.77,8.34-4.28,11.14-11.77,13.23l-38.26,10.68c-7.48,2.09-47.28,7.35-50.62,3.01Z"/><path class="cls-1" d="M587.86,614.57h0c-7.42-5.84,3.7-11.26,11.11-13.7l69.17-23.9c13.42-4.41,18.15,.9,19.42,6.04h0c6.25,8-3.7,11.26-11.11,13.7l-37.88,12.44c-7.41,2.43-47.13,9.57-50.72,5.42Z"/><path class="cls-1" d="M-3.99,483.16h0c2.25-9.69,11.81-4.08,17.1,.39l50.46,41.05c9.58,8.1,6.69,15.28,2.54,19.54h0c-4.7,10.09-11.81,4.08-17.1-.39l-27.04-22.88c-5.29-4.48-28.25-32.19-25.96-37.7Z"/><path class="cls-1" d="M1451.07,432.72h0c-6.68-7.83,5.14-9.72,12.87-9.84l72.26-2.26c13.98-.22,18.04,6.3,18.66,11.62h0c5.23,9.56-5.14,9.72-12.87,9.84l-39.49,.62c-7.72,.12-48.37-4.92-51.43-9.97Z"/><path class="cls-1" d="M1593.4,437.64h0c-3.84-9.72,7.77-7.74,15.01-5.38l68.1,21.04c13.11,4.28,14.9,11.89,13.85,17.23h0c1.96,10.92-7.77,7.74-15.01,5.38l-37.02-12.09c-7.24-2.37-43.62-20.3-44.93-26.17Z"/><path class="cls-1" d="M1711.84,474.88h0c-4.38-8.91,7.87-8.02,15.55-6.39l72.23,14.17c13.92,2.95,16.07,10.02,15.17,15.18h0c2.46,10.21-7.87,8.02-15.55,6.39l-39.29-8.33c-7.69-1.63-46.52-15.55-48.11-21.02Z"/><path class="cls-1" d="M1853.46,513.05h0c-4.81-9.1,7.14-8.36,14.7-6.79l71.01,13.57c13.69,2.84,16.23,10.09,15.67,15.41h0c3.02,10.47-7.14,8.36-14.7,6.79l-38.67-8.02c-7.56-1.57-46.13-15.36-48.01-20.96Z"/><path class="cls-1" d="M1994.87,547.01h0c-6.81-7.93,4.8-9.86,12.42-10l71.23-2.43c13.79-.25,17.97,6.35,18.73,11.74h0c5.43,9.68-4.8,9.86-12.42,10l-38.94,.7c-7.62,.14-47.86-4.89-51.02-10.01Z"/><path class="cls-1" d="M2147.85,546.73h0c-6.81-7.93,4.8-9.86,12.42-10l71.23-2.43c13.79-.25,17.97,6.35,18.73,11.74h0c5.43,9.68-4.8,9.86-12.42,10l-38.94,.7c-7.62,.14-47.86-4.89-51.02-10.01Z"/></svg>