<?xml version="1.0" encoding="UTF-8"?><svg id="Layer_4" xmlns="http://www.w3.org/2000/svg" width="1242" height="2975" viewBox="0 0 1242 2975"><defs><style>.cls-1{fill:#049387;}</style></defs><path class="cls-1" d="M480,1014.49h0c9.06-.51,6.57,9.67,3.99,15.67l-23.16,56.79c-4.67,10.86-11.69,10.13-16.47,7.48h0c-10.04-1.62-6.57-9.67-3.99-15.67l13.19-30.67c2.58-6,21.04-34.23,26.45-33.6Z"/><path class="cls-1" d="M433.4,1125.57h0c8.29-2.95,8.6,7.92,7.75,14.62l-6.91,63.09c-1.55,12.13-8.26,13.29-13.39,11.91h0c-9.75,1.08-8.6-7.92-7.75-14.62l4.37-34.25c.85-6.7,10.74-39.92,15.94-40.75Z"/><path class="cls-1" d="M422.9,1246.68h0c6.84-5.32,10.1,5.45,11.15,12.38l10.89,64.99c1.89,12.56-3.98,15.63-9.09,15.73h0c-8.7,3.87-10.1-5.45-11.15-12.38l-5.35-35.46c-1.05-6.94-1.01-42.95,3.55-45.26Z"/><path class="cls-1" d="M445.78,1369.93h0c4.8-7.31,10.82,2.47,13.73,9.09l28.26,61.66c5.27,11.98,.72,16.77-3.95,18.36h0c-6.91,6.41-10.82-2.47-13.73-9.09l-14.87-33.82c-2.91-6.61-12.99-42.56-9.44-46.2Z"/><path class="cls-1" d="M495.19,1489.77h0c4.4-7.6,10.86,1.92,14.07,8.42l31.11,60.53c5.82,11.77,1.56,16.82-3,18.67h0c-6.54,6.81-10.86-1.92-14.07-8.42l-16.44-33.23c-3.22-6.5-15.01-42.12-11.67-45.97Z"/><path class="cls-1" d="M704.07,728.94h0c-8.64,1.67-7.31-9.12-5.46-15.61l16.31-61.33c3.35-11.76,10.16-11.9,15.03-9.77h0c9.8,.39,7.31,9.12,5.46,15.61l-9.46,33.21c-1.85,6.5-16.62,37.86-21.87,37.89Z"/><path class="cls-1" d="M732.63,610.77h0c-7.56,4.23-9.17-6.9-9.16-13.92l-1.01-65.89c.01-12.7,6.28-14.86,11.35-14.19h0c9.18-2.52,9.17,6.9,9.16,13.92l-.04,35.86c0,7.01-5.45,42.62-10.31,44.22Z"/><path class="cls-1" d="M728.51,485.48h0c-5.84,6.51-10.33-4.07-12.21-11.05l-18.68-65.2c-3.41-12.63,1.8-16.69,6.66-17.56h0c7.8-5.3,10.33,4.07,12.21,11.05l9.62,35.67c1.88,6.98,6.45,44.03,2.39,47.1Z"/><path class="cls-1" d="M727.76,2090.32h0c-5.6,6.75-10.41-3.7-12.51-10.63l-20.73-64.75c-3.81-12.55,1.24-16.81,6.05-17.87h0c7.59-5.61,10.41,3.7,12.51,10.63l10.75,35.44c2.1,6.93,7.86,43.95,3.93,47.18Z"/><path class="cls-1" d="M703.01,2702.56h0c-9.03-.85-5.05-10.55-1.6-16.09l31.43-52.67c6.25-10.04,13.08-8.26,17.41-4.92h0c9.68,3.1,5.05,10.55,1.6,16.09l-17.64,28.34c-3.45,5.54-25.94,30.68-31.19,29.24Z"/><path class="cls-1" d="M765.76,2599.74h0c-8.64,1.67-7.31-9.12-5.46-15.61l16.31-61.33c3.35-11.76,10.16-11.9,15.03-9.77h0c9.8,.39,7.31,9.12,5.46,15.61l-9.46,33.21c-1.85,6.5-16.62,37.86-21.87,37.89Z"/><path class="cls-1" d="M794.33,2481.58h0c-7.56,4.23-9.17-6.9-9.16-13.92l-1.01-65.89c.01-12.7,6.28-14.86,11.35-14.19h0c9.18-2.52,9.17,6.9,9.16,13.92l-.04,35.86c0,7.01-5.45,42.62-10.31,44.22Z"/><path class="cls-1" d="M790.21,2356.29h0c-5.84,6.51-10.33-4.07-12.21-11.05l-18.68-65.2c-3.41-12.63,1.8-16.69,6.66-17.56h0c7.8-5.3,10.33,4.07,12.21,11.05l9.62,35.67c1.88,6.98,6.45,44.03,2.39,47.1Z"/><path class="cls-1" d="M759.35,2230.39h0c-5.49,6.86-10.44-3.53-12.65-10.44l-21.67-64.51c-3.99-12.51,.99-16.87,5.77-18.01h0c7.49-5.75,10.44,3.53,12.65,10.44l11.26,35.32c2.2,6.91,8.52,43.9,4.64,47.2Z"/><g><path class="cls-1" d="M603.03,1744.62h0c4.4-7.6,10.86,1.92,14.07,8.43l31.1,60.53c5.82,11.77,1.55,16.82-3,18.67h0c-6.54,6.81-10.86-1.92-14.07-8.43l-16.43-33.23c-3.21-6.5-15-42.12-11.66-45.97Z"/><path class="cls-1" d="M547.45,1623.51h0c4.53-7.51,10.85,2.1,13.97,8.64l30.21,60.9c5.65,11.84,1.29,16.81-3.3,18.58h0c-6.66,6.68-10.85-2.1-13.97-8.64l-15.95-33.43c-3.12-6.54-14.37-42.27-10.97-46.06Z"/><path class="cls-1" d="M538.25,927.65h0c9.21,.8,5.31,10.33,1.89,15.79l-31.14,51.85c-6.2,9.88-13.18,8.17-17.65,4.91h0c-9.91-3-5.31-10.33-1.89-15.79l17.51-27.9c3.42-5.46,25.91-30.24,31.29-28.86Z"/><path class="cls-1" d="M629.29,91.43h0c-5.49,6.85-10.44-3.53-12.65-10.44l-21.66-64.52c-3.99-12.51,.99-16.87,5.77-18.01h0c7.49-5.75,10.44,3.53,12.65,10.44l11.26,35.32c2.2,6.91,8.51,43.9,4.63,47.2Z"/><path class="cls-1" d="M666.07,219.51h0c-5.6,6.75-10.41-3.7-12.51-10.63l-20.73-64.75c-3.81-12.55,1.24-16.81,6.05-17.87h0c7.59-5.61,10.41,3.7,12.51,10.63l10.75,35.44c2.1,6.93,7.86,43.95,3.93,47.18Z"/><path class="cls-1" d="M641.32,831.76h0c-9.03-.85-5.05-10.55-1.6-16.09l31.43-52.67c6.25-10.04,13.08-8.26,17.41-4.92h0c9.68,3.1,5.05,10.55,1.6,16.09l-17.64,28.34c-3.45,5.54-25.94,30.68-31.19,29.24Z"/><path class="cls-1" d="M697.66,359.58h0c-5.49,6.86-10.44-3.53-12.65-10.44l-21.67-64.51c-3.99-12.51,.99-16.87,5.77-18.01h0c7.49-5.75,10.44,3.53,12.65,10.44l11.26,35.32c2.2,6.91,8.52,43.9,4.64,47.2Z"/><path class="cls-1" d="M570.7,908.87h0c-8.99-2.17-3.7-11.01,.5-15.9l38.57-46.59c7.61-8.84,14.26-6.1,18.19-2.2h0c9.35,4.46,3.7,11.01-.5,15.9l-21.5,24.96c-4.2,4.88-30.16,26.01-35.26,23.83Z"/><path class="cls-1" d="M546.23,2884.38h0c9.06-.51,6.57,9.67,3.99,15.67l-23.16,56.79c-4.67,10.86-11.69,10.13-16.47,7.48h0c-10.04-1.62-6.57-9.67-3.99-15.67l13.19-30.67c2.58-6,21.04-34.23,26.45-33.6Z"/><path class="cls-1" d="M604.48,2797.54h0c9.21,.8,5.31,10.33,1.89,15.79l-31.14,51.85c-6.2,9.88-13.18,8.17-17.65,4.91h0c-9.91-3-5.31-10.33-1.89-15.79l17.51-27.9c3.42-5.46,25.91-30.24,31.29-28.86Z"/><path class="cls-1" d="M690.99,1962.24h0c-5.49,6.85-10.44-3.53-12.65-10.44l-21.66-64.52c-3.99-12.51,.99-16.87,5.77-18.01h0c7.49-5.75,10.44,3.53,12.65,10.44l11.26,35.32c2.2,6.91,8.51,43.9,4.63,47.2Z"/><path class="cls-1" d="M632.39,2779.68h0c-8.99-2.17-3.7-11.01,.5-15.9l38.57-46.59c7.61-8.84,14.26-6.1,18.19-2.2h0c9.35,4.46,3.7,11.01-.5,15.9l-21.5,24.96c-4.2,4.88-30.16,26.01-35.26,23.83Z"/></g></svg>