<?xml version="1.0" encoding="UTF-8"?><svg xmlns="http://www.w3.org/2000/svg" width="870" height="490" viewBox="0 0 870 490"><defs><style>.j{fill:#f4be58;}.k{fill:#f4be56;}.l{fill:#eedec0;}.m{fill:#e7a947;}.n{fill:#ea968c;}.o{fill:#fff;}.p{fill:#f1622c;}.q{fill:#c62c26;}.r{fill:#e17d70;}.s{fill:#22210c;}.t{fill:#3e773f;}.u{fill:#293f02;}.v{fill:#3c6087;}.w{fill:#3c6088;}.x{fill:#578a55;}.y{fill:#387945;}.a`{fill:#5e7c9d;}</style></defs><g id="a"/><g id="b"/><g id="c"><rect class="r" x="-.11" y="2.5" width="870" height="490"/><path class="l" d="M700.66,424.25H162.57s15.83-120.64-3.61-171.4c-40.59-105.99,366.7,1.35,523.66-46.91,51.95-15.97,18.04,218.3,18.04,218.3Z"/><g><g><path class="l" d="M142.31,214.41h0c-4.34,1.68-5.28-1.83-5.28-4.09l-.62-21.16c0-4.09,3.6-5.05,6.52-5.05h0c5.28-1.2,5.28,1.83,5.28,4.09v11.54c0,2.26-3.1,13.95-5.9,14.67Z"/><path class="l" d="M142.31,437.75h0c-4.34,1.68-5.28-1.83-5.28-4.09l-.62-21.16c0-4.09,3.6-5.05,6.52-5.05h0c5.28-1.2,5.28,1.83,5.28,4.09v11.54c0,2.26-3.1,13.95-5.9,14.67Z"/><path class="l" d="M142.31,394.23h0c-4.34,1.68-5.28-1.83-5.28-4.09l-.62-21.16c0-4.09,3.6-5.05,6.52-5.05h0c5.28-1.2,5.28,1.83,5.28,4.09v11.54c0,2.26-3.1,13.95-5.9,14.67Z"/><path class="l" d="M142.31,349.27h0c-4.34,1.68-5.28-1.83-5.28-4.09l-.62-21.16c0-4.09,3.6-5.05,6.52-5.05h0c5.28-1.2,5.28,1.83,5.28,4.09v11.54c0,2.26-3.1,13.95-5.9,14.67Z"/><path class="l" d="M142.31,304.31h0c-4.34,1.68-5.28-1.83-5.28-4.09l-.62-21.16c0-4.09,3.6-5.05,6.52-5.05h0c5.28-1.2,5.28,1.83,5.28,4.09v11.54c0,2.26-3.1,13.95-5.9,14.67Z"/><path class="l" d="M142.31,259.34h0c-4.34,1.68-5.28-1.83-5.28-4.09l-.62-21.16c0-4.09,3.6-5.05,6.52-5.05h0c5.28-1.2,5.28,1.83,5.28,4.09v11.54c0,2.26-3.1,13.95-5.9,14.67Z"/></g><g><path class="l" d="M194.17,189.4h0c2.17,3.37-2.36,4.09-5.28,4.09l-27.31,.48c-5.28,0-6.52-2.79-6.52-5.05h0c-1.55-4.09,2.36-4.09,5.28-4.09h14.9c2.91,0,18,2.4,18.93,4.57Z"/><path class="l" d="M708.22,189.4h0c2.17,3.37-2.36,4.09-5.28,4.09l-27.31,.48c-5.28,0-6.52-2.79-6.52-5.05h0c-1.55-4.09,2.36-4.09,5.28-4.09h14.9c2.91,0,18,2.4,18.93,4.57Z"/><path class="l" d="M648.63,189.4h0c2.17,3.37-2.36,4.09-5.28,4.09l-27.31,.48c-5.28,0-6.52-2.79-6.52-5.05h0c-1.55-4.09,2.36-4.09,5.28-4.09h14.9c2.91,0,18,2.4,18.93,4.57Z"/><path class="l" d="M582.84,189.4h0c2.17,3.37-2.36,4.09-5.28,4.09l-27.31,.48c-5.28,0-6.52-2.79-6.52-5.05h0c-1.55-4.09,2.36-4.09,5.28-4.09h14.9c2.91,0,18,2.4,18.93,4.57Z"/><path class="l" d="M519.85,189.4h0c2.17,3.37-2.36,4.09-5.28,4.09l-27.31,.48c-5.28,0-6.52-2.79-6.52-5.05h0c-1.55-4.09,2.36-4.09,5.28-4.09h14.9c2.91,0,18,2.4,18.93,4.57Z"/><path class="l" d="M453.75,189.4h0c2.17,3.37-2.36,4.09-5.28,4.09l-27.31,.48c-5.28,0-6.52-2.79-6.52-5.05h0c-1.55-4.09,2.36-4.09,5.28-4.09h14.9c2.91,0,18,2.4,18.93,4.57Z"/><path class="l" d="M382.99,189.4h0c2.17,3.37-2.36,4.09-5.28,4.09l-27.31,.48c-5.28,0-6.52-2.79-6.52-5.05h0c-1.55-4.09,2.36-4.09,5.28-4.09h14.9c2.91,0,18,2.4,18.93,4.57Z"/><path class="l" d="M315.03,189.4h0c2.17,3.37-2.36,4.09-5.28,4.09l-27.31,.48c-5.28,0-6.52-2.79-6.52-5.05h0c-1.55-4.09,2.36-4.09,5.28-4.09h14.9c2.91,0,18,2.4,18.93,4.57Z"/><path class="l" d="M254.21,189.4h0c2.17,3.37-2.36,4.09-5.28,4.09l-27.31,.48c-5.28,0-6.52-2.79-6.52-5.05h0c-1.55-4.09,2.36-4.09,5.28-4.09h14.9c2.91,0,18,2.4,18.93,4.57Z"/></g><g><path class="l" d="M664.22,435.38h0c-2.17,3.37,2.36,4.09,5.28,4.09l27.31,.48c5.28,0,6.52-2.79,6.52-5.05h0c1.55-4.09-2.36-4.09-5.28-4.09h-14.9c-2.91,0-18,2.4-18.93,4.57Z"/><path class="l" d="M150.17,435.38h0c-2.17,3.37,2.36,4.09,5.28,4.09l27.31,.48c5.28,0,6.52-2.79,6.52-5.05h0c1.55-4.09-2.36-4.09-5.28-4.09h-14.9c-2.91,0-18,2.4-18.93,4.57Z"/><path class="l" d="M209.75,435.38h0c-2.17,3.37,2.36,4.09,5.28,4.09l27.31,.48c5.28,0,6.52-2.79,6.52-5.05h0c1.55-4.09-2.36-4.09-5.28-4.09h-14.9c-2.91,0-18,2.4-18.93,4.57Z"/><path class="l" d="M275.54,435.38h0c-2.17,3.37,2.36,4.09,5.28,4.09l27.31,.48c5.28,0,6.52-2.79,6.52-5.05h0c1.55-4.09-2.36-4.09-5.28-4.09h-14.9c-2.91,0-18,2.4-18.93,4.57Z"/><path class="l" d="M338.54,435.38h0c-2.17,3.37,2.36,4.09,5.28,4.09l27.31,.48c5.28,0,6.52-2.79,6.52-5.05h0c1.55-4.09-2.36-4.09-5.28-4.09h-14.9c-2.91,0-18,2.4-18.93,4.57Z"/><path class="l" d="M404.64,435.38h0c-2.17,3.37,2.36,4.09,5.28,4.09l27.31,.48c5.28,0,6.52-2.79,6.52-5.05h0c1.55-4.09-2.36-4.09-5.28-4.09h-14.9c-2.91,0-18,2.4-18.93,4.57Z"/><path class="l" d="M475.4,435.38h0c-2.17,3.37,2.36,4.09,5.28,4.09l27.31,.48c5.28,0,6.52-2.79,6.52-5.05h0c1.55-4.09-2.36-4.09-5.28-4.09h-14.9c-2.91,0-18,2.4-18.93,4.57Z"/><path class="l" d="M543.36,435.38h0c-2.17,3.37,2.36,4.09,5.28,4.09l27.31,.48c5.28,0,6.52-2.79,6.52-5.05h0c1.55-4.09-2.36-4.09-5.28-4.09h-14.9c-2.91,0-18,2.4-18.93,4.57Z"/><path class="l" d="M604.18,435.38h0c-2.17,3.37,2.36,4.09,5.28,4.09l27.31,.48c5.28,0,6.52-2.79,6.52-5.05h0c1.55-4.09-2.36-4.09-5.28-4.09h-14.9c-2.91,0-18,2.4-18.93,4.57Z"/></g><g><path class="l" d="M721.38,216.58h0c4.34,1.68,5.28-1.83,5.28-4.09l.62-21.16c0-4.09-3.6-5.05-6.52-5.05h0c-5.28-1.2-5.28,1.83-5.28,4.09v11.54c0,2.26,3.1,13.95,5.9,14.67Z"/><path class="l" d="M721.38,439.92h0c4.34,1.68,5.28-1.83,5.28-4.09l.62-21.16c0-4.09-3.6-5.05-6.52-5.05h0c-5.28-1.2-5.28,1.83-5.28,4.09v11.54c0,2.26,3.1,13.95,5.9,14.67Z"/><path class="l" d="M721.38,396.4h0c4.34,1.68,5.28-1.83,5.28-4.09l.62-21.16c0-4.09-3.6-5.05-6.52-5.05h0c-5.28-1.2-5.28,1.83-5.28,4.09v11.54c0,2.26,3.1,13.95,5.9,14.67Z"/><path class="l" d="M721.38,351.43h0c4.34,1.68,5.28-1.83,5.28-4.09l.62-21.16c0-4.09-3.6-5.05-6.52-5.05h0c-5.28-1.2-5.28,1.83-5.28,4.09v11.54c0,2.26,3.1,13.95,5.9,14.67Z"/><path class="l" d="M721.38,306.47h0c4.34,1.68,5.28-1.83,5.28-4.09l.62-21.16c0-4.09-3.6-5.05-6.52-5.05h0c-5.28-1.2-5.28,1.83-5.28,4.09v11.54c0,2.26,3.1,13.95,5.9,14.67Z"/><path class="l" d="M721.38,261.51h0c4.34,1.68,5.28-1.83,5.28-4.09l.62-21.16c0-4.09-3.6-5.05-6.52-5.05h0c-5.28-1.2-5.28,1.83-5.28,4.09v11.54c0,2.26,3.1,13.95,5.9,14.67Z"/></g></g><g><path class="p" d="M299.34,284.77s-8.26-20.41-6.14-21.94c2.18-1.58,10.99,14.64,10.99,14.64,0,0-2.05-17.08-.76-19.12,4.74-7.51,6.06,13.9,6.06,13.9,0,0,3.44-16.69,5.59-15.76s5.69,20.33,5.69,20.33c0,0,10.63-15.88,12.13-13.99,6.5,8.17-7.11,23.97-7.11,23.97,0,0,11.49-7.85,12.32-5.41,3.32,9.79-15.58,18.32-15.58,18.32,0,0,15.15,5.86,15.96,9.19,2.14,8.8-11.84,3.08-11.84,3.08,0,0,5.77,11.72,2.75,13.9-7.11,5.13-11.47-8.58-11.47-8.58,0,0-2.14,10.62-9.85,8.02-9.78-3.3-1.37-12.24-1.37-12.24,0,0-8.26,8.3-10.4,7.38-2.23-.96,2.19-12.18,2.19-12.18,0,0-8.19-.55-9.5-2.57s12.38-8.22,12.38-8.22c0,0-12.13,2.08-12.69-.43-2.63-11.92,11.97-4.33,11.97-4.33,0,0-19.29-14.46-15.79-19.82,3.75-5.75,14.48,11.86,14.48,11.86Z"/><ellipse class="o" cx="301.42" cy="291.52" rx="8.74" ry="24.11"/><ellipse class="o" cx="323.05" cy="288.44" rx="9.38" ry="25.6"/><path class="s" d="M306.28,301.82c0,5.96-.94,9.09-4.08,9.09s-5.69-4.83-5.69-10.79,2.55-10.79,5.69-10.79,4.08,6.54,4.08,12.5Z"/><ellipse class="s" cx="324" cy="299.27" rx="4.37" ry="11.16"/><path class="s" d="M324.51,311.42c0,2.06-3.86,10.77-11.16,10.77-7.3,0-12.57-8.92-12.57-10.99,0-2.06,5.27,7.25,12.57,7.25,7.3,0,11.16-9.09,11.16-7.03Z"/></g><g><g><rect class="u" x="423.15" y="310.13" width="6.28" height="118.85" rx="2.51" ry="2.51"/><rect class="u" x="410.58" y="421.48" width="18.85" height="7.5" rx="2.99" ry="2.99"/></g><g><rect class="u" x="436.63" y="306.22" width="6.28" height="118.85" rx="2.51" ry="2.51" transform="translate(879.55 731.28) rotate(180)"/><rect class="u" x="436.63" y="417.56" width="18.85" height="7.5" rx="2.99" ry="2.99" transform="translate(892.12 842.63) rotate(180)"/></g><g><rect class="u" x="412.15" y="311.7" width="6.28" height="107.85" rx="2.51" ry="2.51"/><rect class="u" x="399.59" y="412.75" width="18.85" height="6.81" rx="2.72" ry="2.72"/></g><path class="n" d="M467.65,225.32c-13.35,51.62-18.8,93.96-42.41,93.19-29.83-.97-47.09-40.77-43.46-91.1,3.68-50.93-7.21-93.78,43.46-95.81,54.88-2.2,56.02,41.09,42.41,93.72Z"/><path class="o" d="M416.88,278.85v.08s0,.03,0,.04c-1.58-.63-3.05-1.42-4.37-2.33l-.43-7.48c-.05-.92,.8-5.46,1.96-5.52,1.16-.07,2.21,4.16,2.27,5.08l.57,10.13Z"/><path class="o" d="M440.71,268.77c-1.37,4.02-3.23,6.85-5.28,8.84-1.03,1-2.1,1.79-3.19,2.39-2.81,1.59-5.69,2.02-7.99,2.02-.44,0-.85-.02-1.25-.04-2.36-.16-4.75-.76-6.98-1.69-1.19-.49-2.32-1.06-3.4-1.71-3.94-2.39-6.93-5.74-7.6-9.1-.08-.42,.19-.84,.62-.92,.42-.08,.84,.19,.92,.62,.49,2.47,2.74,5.27,5.95,7.46,1.31,.91,2.79,1.7,4.37,2.33,1.95,.78,4.07,1.3,6.23,1.45,3.3,.22,5.97-.47,8.15-1.67,1.73-.95,3.13-2.23,4.27-3.62,1.85-2.26,3.01-4.84,3.7-6.86,.14-.41,.59-.63,.99-.49,.41,.14,.63,.59,.49,.99Z"/><path class="o" d="M435.9,265.5l-.38,9.63c-1.14,1.39-2.54,2.67-4.27,3.62-.06-.2-.09-.42-.08-.65l.47-12.51c.04-1.16,1.37-6.75,2.53-6.71,1.17,.04,1.77,5.46,1.73,6.62Z"/><ellipse class="o" cx="423.67" cy="216.94" rx="20.94" ry="29.84"/><ellipse cx="423.67" cy="227.15" rx="6.81" ry="10.21"/></g><g><g><path class="y" d="M491.26,411.91c13.71-15.8,49.25-28.52,98.07-33.68,70.72-7.48,87.96,21.31,86.93,42.19-1.03,20.89-41.8,28.59-90.66,33.45-99.57,9.91-113.82-19.53-94.35-41.97Z"/><path class="x" d="M484.86,407.71c13.71-15.8,49.25-28.52,98.07-33.68,70.72-7.48,87.96,21.31,86.93,42.19-1.03,20.89-41.8,28.59-90.66,33.45-99.57,9.91-113.82-19.53-94.35-41.97Z"/></g><g><g><path class="m" d="M526.11,431.97c-1.04,.14-2.3,.31-3.72,.45-1.42,.15-2.91,.3-4.45,.38-.77,.04-1.36-.25-1.64-.87-.86-1.88-1.71-5.87-2.21-10.79-.67-6.63-.54-9.68-.18-10.99,.16-.63,.52-.9,.94-1.06,.65-.18,2.45-.48,4.15-.65,.93-.09,1.81-.18,2.48-.14,.61,.01,.8,.26,.9,.72,.1,.45,.39,.58,.67,.55,.27-.03,.54-.17,.9-.4,1.03-.8,2.11-1.56,3.32-1.69,.99-.1,1.74,.71,2.04,3.72,.14,1.41,.17,2.75-.09,3.47-.21,.68-.63,.87-1.12,.92-.66,.07-1.57-.19-2.61-.08-1.04,.11-1.85,.92-1.54,3.89,.49,4.8,3.42,10.74,3.5,11.5,.05,.5-.24,.87-1.33,1.06Z"/><path class="m" d="M535.23,419.22c-.33-3.2-.18-9.38,.04-11.09,.08-.82,.54-1.21,1.41-1.38,1.09-.15,2.46-.33,3.78-.46,1.26-.13,2.42-.21,3.35-.26,.94-.02,1.25,.26,1.3,.75,.12,1.22-.03,7.9,.48,12.85,.32,3.12,1.47,4.05,3.28,3.86,.93-.09,1.62-.4,2.19-.84,1.02-.83,1.33-2.17,1.07-4.73-.69-6.74-1.92-10.7-2.05-11.42-.13-.76,.28-1.07,1.31-1.25,.81-.16,1.86-.27,2.95-.38,1.37-.14,2.69-.27,3.74-.3,1.05-.07,1.67,.1,1.95,1.15,.86,3.03,1.42,6.29,1.78,9.91,.34,3.32,.49,6.96,.4,11.05,0,1.15-1,1.6-2.25,1.81-.87,.17-1.97,.28-2.95,.38-.77,.08-1.54,.16-2.09,.17-.94,.02-1.35-.21-1.41-.82-.05-.53-.35-.7-.95-.63-1.75,.18-3.9,2.48-7.8,2.87-6.14,.62-8.58-2.13-9.51-11.24Z"/><path class="m" d="M581.34,426.39c-1.25,.21-2.73,.36-4.27,.51-1.54,.16-3.13,.32-4.45,.38-.61,.02-1.45-.08-1.65-.95-.76-3.08-1.35-6.72-1.74-10.53-.63-6.21-.77-12.97-.24-18.65,.08-.82,.68-.99,1.38-1.14,1.26-.17,2.46-.33,3.72-.46s2.53-.22,3.68-.3c.77-.04,1.29,.14,1.34,.67,.07,.65-.24,7.42,.47,14.43,.75,7.39,2.59,14.06,2.71,15.16,.05,.5-.37,.77-.97,.87Z"/><path class="m" d="M601.02,424.89c-9.87,1-13.7-3.92-14.35-10.32-.96-9.41,5.56-13.96,13.79-14.8,5.54-.56,10.08,1.05,10.51,5.32,.66,6.52-7.1,8.08-11.78,10.05-1.66,.59-2.33,1.01-2.27,1.66,.11,1.1,1.35,1.86,3.99,1.6,3.78-.38,7.12-1.88,9.06-4.04,.31-.22,.52-.36,.79-.39,.77-.08,1.47,.85,1.65,2.64,.45,4.42-4.93,7.62-11.41,8.28Zm-1.23-19.7c-3.02,.31-4.87,2.8-4.6,5.43,.04,.38,.23,.67,.73,.62,.33-.03,.71-.15,1.02-.3,2.1-1.14,5.73-2.47,5.55-4.3-.1-.99-1.11-1.62-2.7-1.46Z"/><path class="m" d="M628.52,416.28c1.92-.2,2.69-.81,2.59-1.77-.1-.95-1.15-1.5-4.27-2.18-5.44-1.22-9.88-2.34-10.33-6.8-.47-4.57,4.19-7.86,11.98-8.65,3.51-.36,7.19-.12,9.13,.46,.86,.26,1.11,.58,1.17,1.15,.14,1.41-.61,3.83-1.36,5.18-.18,.37-.5,.51-.83,.55-.28,.03-.56-.02-.79-.15-2.15-.98-5.46-1.87-8.03-1.61-1.75,.18-2.57,.84-2.49,1.64,.1,.99,1.13,1.35,4.36,2.02,5.04,1.03,10.65,2.27,11.13,6.99,.52,5.11-3.94,8.14-11.12,8.87-7.35,.75-12.15-1.23-12.55-5.15-.16-1.56,.27-2.8,.71-3.38,.2-.25,.45-.43,.78-.46,.27-.03,.56,.02,.74,.23,1.79,1.74,5.34,3.46,9.18,3.07Z"/></g><g><path class="k" d="M524.42,430.18c-1.04,.14-2.3,.31-3.72,.46-1.42,.14-2.91,.3-4.45,.38-.77,.04-1.35-.25-1.64-.87-.86-1.88-1.71-5.87-2.21-10.79-.67-6.63-.54-9.68-.18-10.99,.16-.63,.52-.9,.94-1.06,.65-.18,2.45-.48,4.15-.65,.93-.09,1.81-.18,2.48-.14,.61,.01,.8,.26,.9,.72,.1,.45,.39,.58,.67,.55,.27-.03,.54-.17,.9-.4,1.03-.8,2.11-1.56,3.32-1.69,.99-.1,1.74,.71,2.04,3.72,.14,1.41,.17,2.75-.09,3.47-.21,.67-.63,.87-1.13,.92-.66,.07-1.57-.19-2.61-.08-1.04,.11-1.85,.92-1.54,3.89,.49,4.8,3.42,10.74,3.5,11.5,.05,.49-.24,.87-1.33,1.06Z"/><path class="k" d="M533.54,417.43c-.33-3.2-.18-9.38,.04-11.09,.08-.82,.54-1.21,1.41-1.38,1.09-.15,2.46-.33,3.78-.46,1.26-.13,2.42-.21,3.35-.26,.94-.02,1.25,.26,1.3,.75,.12,1.22-.03,7.89,.48,12.85,.32,3.12,1.46,4.05,3.27,3.86,.93-.09,1.62-.4,2.19-.84,1.02-.83,1.33-2.17,1.07-4.73-.69-6.74-1.92-10.7-2.05-11.42-.13-.76,.28-1.07,1.31-1.25,.81-.16,1.86-.27,2.95-.38,1.37-.14,2.69-.27,3.74-.3,1.04-.07,1.67,.1,1.94,1.15,.86,3.03,1.42,6.29,1.78,9.91,.34,3.32,.49,6.96,.4,11.05,0,1.15-1,1.6-2.25,1.81-.87,.17-1.97,.28-2.95,.38-.77,.08-1.54,.16-2.09,.17-.94,.02-1.35-.21-1.41-.82-.05-.53-.35-.7-.95-.63-1.75,.18-3.9,2.48-7.8,2.87-6.14,.62-8.58-2.13-9.51-11.24Z"/><path class="k" d="M579.65,424.6c-1.25,.2-2.74,.35-4.27,.51-1.54,.16-3.13,.32-4.45,.38-.61,.02-1.45-.08-1.65-.95-.76-3.08-1.35-6.72-1.73-10.53-.63-6.21-.77-12.97-.24-18.65,.08-.82,.67-.99,1.38-1.14,1.26-.17,2.46-.33,3.72-.45,1.26-.13,2.53-.22,3.68-.3,.77-.04,1.29,.14,1.34,.67,.07,.65-.24,7.42,.47,14.43,.75,7.39,2.59,14.06,2.71,15.16,.05,.49-.37,.77-.96,.87Z"/><path class="k" d="M599.34,423.09c-9.87,1-13.7-3.92-14.35-10.32-.96-9.41,5.56-13.96,13.79-14.8,5.54-.56,10.08,1.05,10.52,5.32,.66,6.52-7.1,8.08-11.78,10.05-1.66,.59-2.34,1.01-2.27,1.66,.11,1.11,1.35,1.86,3.99,1.6,3.78-.38,7.12-1.88,9.07-4.04,.31-.22,.52-.36,.79-.39,.77-.08,1.47,.85,1.65,2.64,.45,4.42-4.93,7.62-11.41,8.28Zm-1.23-19.7c-3.02,.31-4.87,2.8-4.6,5.43,.04,.38,.23,.67,.73,.62,.33-.03,.71-.15,1.02-.3,2.1-1.14,5.73-2.47,5.55-4.3-.1-.99-1.11-1.62-2.7-1.46Z"/><path class="k" d="M626.83,414.48c1.92-.2,2.69-.81,2.59-1.77-.1-.95-1.15-1.5-4.27-2.18-5.44-1.22-9.88-2.34-10.33-6.8-.46-4.57,4.19-7.86,11.98-8.65,3.51-.36,7.19-.12,9.13,.46,.86,.26,1.11,.58,1.17,1.15,.14,1.41-.61,3.83-1.36,5.18-.18,.36-.5,.51-.83,.55-.27,.03-.56-.02-.79-.15-2.15-.97-5.45-1.87-8.03-1.61-1.75,.18-2.58,.84-2.49,1.64,.1,.99,1.13,1.35,4.36,2.02,5.04,1.03,10.65,2.27,11.13,6.99,.52,5.11-3.94,8.14-11.12,8.87-7.35,.75-12.15-1.23-12.55-5.15-.16-1.56,.27-2.8,.71-3.38,.2-.25,.46-.43,.78-.47,.27-.03,.56,.02,.74,.23,1.78,1.74,5.34,3.46,9.18,3.07Z"/></g></g></g><g><g><path class="j" d="M200.2,113.71c-1.87,.16-4.07,.16-6.35,.16s-4.64,0-6.6-.16c-.9-.08-2.12-.49-2.28-2.36-.65-6.68-.98-14.49-.98-22.64,0-13.27,.81-27.61,2.44-39.49,.24-1.71,1.14-1.95,2.2-2.12,1.87-.08,3.66-.16,5.54-.16s3.75,.08,5.46,.16c1.14,.08,1.87,.57,1.87,1.71,0,1.38-1.47,15.63-1.47,30.62,0,15.8,1.71,30.29,1.71,32.65,0,1.06-.65,1.55-1.55,1.63Z"/><path class="j" d="M241.57,114.77c-14.66,0-19.54-11.24-19.54-24.92,0-20.11,10.26-28.34,22.48-28.34,8.22,0,14.66,4.4,14.66,13.52,0,13.92-11.64,15.55-18.81,18.73-2.52,.9-3.58,1.63-3.58,3.01,0,2.36,1.71,4.23,5.62,4.23,5.62,0,10.75-2.44,13.93-6.6,.49-.41,.81-.65,1.22-.65,1.14,0,2.04,2.12,2.04,5.94,0,9.45-8.39,15.06-18,15.06Zm1.14-41.94c-4.48,0-7.57,4.89-7.57,10.5,0,.81,.24,1.47,.98,1.47,.49,0,1.06-.16,1.55-.41,3.26-1.95,8.79-3.99,8.79-7.9,0-2.12-1.38-3.66-3.75-3.66Z"/><path class="j" d="M293.44,113.71c-1.14,.08-2.69,.16-4.23,.16-1.63,0-3.5,0-5.46-.16-1.38-.08-2.2-.57-2.36-2.85-.57-6.84-1.06-14.58-1.06-23.78,0-6.27,.24-13.27,.9-21.09,.16-2.52,1.63-3.26,3.66-3.5,1.38-.16,3.01-.16,4.8-.16s3.66,0,4.56,.16c1.14,.16,1.55,.57,1.55,1.47,0,.65-.33,1.55-.33,2.36,0,.49,.33,.81,.9,.81,2.12,0,5.29-5.37,10.99-5.37,5.29,0,7.08,3.99,9.12,3.99,2.36,0,5.78-3.99,11.97-3.99,9.61,0,13.52,9.04,13.52,26.3,0,12.87-.9,20.77-1.71,23.45-.41,1.63-1.79,2.12-2.93,2.2s-2.77,.16-4.48,.16-3.66-.08-5.54-.16c-1.87-.08-2.44-1.06-2.44-2.36,0-2.36,1.55-10.26,1.55-23.86,0-8.55-.9-12.05-3.99-12.05-2.61,0-4.8,2.2-4.8,7.33,0,4.48,.16,7.74,.16,11.97,0,6.84-.49,12.62-.98,16.29-.24,1.71-.98,2.44-2.2,2.52-1.47,.16-3.42,.24-5.37,.24-1.63,0-3.42-.08-4.97-.16-1.55-.16-1.87-.81-1.87-1.95,0-1.22,.81-15.55,.81-25.81,0-7.25-.65-10.26-3.75-10.26-3.42,0-5.13,3.34-5.13,11.16,0,14.41,1.06,23.21,1.06,24.92,0,1.3-.73,1.87-1.95,2.04Z"/><path class="j" d="M462.49,82.52c0,12.38-1.22,25.41-1.71,28.83-.24,1.55-1.06,2.28-2.28,2.36-1.3,.16-3.09,.16-4.97,.16-2.04,0-3.99-.08-5.7-.16-1.3-.16-1.79-.73-1.79-1.71,0-3.75,1.22-17.35,1.22-28.01,0-5.78-.98-8.55-3.99-8.55-1.47,0-2.77,.49-3.75,1.47-1.38,1.3-1.95,3.58-1.95,9.53,0,12.21,1.14,22.72,1.14,25.16,0,1.47-.65,2.04-2.12,2.12s-3.01,.16-4.56,.16c-2.04,0-3.99-.08-5.46-.16-1.38-.08-2.28-.49-2.44-2.61-.57-6.27-.98-14.25-.98-23.45,0-6.6,.16-13.84,.73-21.5,.16-2.61,1.71-3.26,3.83-3.5,1.47-.08,3.18-.16,4.8-.16,1.38,0,2.77,.08,3.75,.16,1.47,.08,2.04,.73,2.04,1.87s.41,1.55,1.14,1.55c2.44,0,5.54-4.32,11.65-4.32,7.74,0,11.4,5.62,11.4,20.77Z"/><path class="j" d="M499.3,102.47c2.85,0,4.07-1.14,4.07-3.18s-1.47-3.42-5.94-5.54c-7.82-3.75-14.17-7.08-14.17-16.61s7.33-15.72,18.89-15.72c5.21,0,10.59,1.3,13.35,2.93,1.22,.73,1.55,1.47,1.55,2.69,0,3.01-1.47,7.98-2.77,10.67-.33,.73-.81,.98-1.3,.98-.41,0-.81-.16-1.14-.49-3.01-2.52-7.74-5.13-11.56-5.13-2.61,0-3.91,1.22-3.91,2.93,0,2.12,1.47,3.09,6.11,5.21,7.25,3.26,15.31,7.08,15.31,17.18,0,10.91-7,16.37-17.67,16.37s-17.67-5.21-17.67-13.6c0-3.34,.81-5.86,1.55-7,.33-.49,.73-.81,1.22-.81,.41,0,.81,.16,1.06,.65,2.36,4.07,7.33,8.47,13.03,8.47Z"/><path class="j" d="M556.22,50.68c.73,0,1.14,.49,1.14,1.06,0,1.22-2.69,6.11-2.69,10.02,0,.73,.41,1.14,1.3,1.14,1.06,0,2.77-.33,3.91-.33,.73,0,1.14,.49,1.3,1.47,.24,1.38,.41,3.42,.41,5.54s-.16,4.4-.57,6.43c-.16,.73-.65,.98-1.22,.98-1.06,0-2.44-.41-3.91-.41-1.22,0-1.55,.73-1.71,2.85-.16,1.38-.24,3.18-.24,5.05,0,8.47,1.95,18.4,3.91,25.41,.08,.41,.16,.65,.16,.9,0,.65-.33,1.06-.9,1.47-3.09,2.04-10.18,3.26-13.6,3.26-.98,0-1.55-.33-1.87-1.14-1.79-4.48-2.52-11.24-2.52-18.49,0-8.14,.9-14.74,.98-17.26,.08-.9-.24-1.22-.98-1.38-.41-.08-.81-.16-1.06-.16-.81-.16-1.3-.65-1.3-1.71,0-3.42,.16-6.92,.65-10.99,.24-1.22,.73-1.71,1.47-1.71h1.22c1.06,0,1.22-1.3,1.47-4.15,.33-3.42,.49-3.99,2.04-4.89,3.91-2.28,11.07-2.93,12.62-2.93Z"/><path class="j" d="M599.21,114.77c-14.66,0-19.54-11.24-19.54-24.92,0-20.11,10.26-28.34,22.48-28.34,8.22,0,14.66,4.4,14.66,13.52,0,13.92-11.64,15.55-18.81,18.73-2.52,.9-3.58,1.63-3.58,3.01,0,2.36,1.71,4.23,5.62,4.23,5.62,0,10.75-2.44,13.92-6.6,.49-.41,.81-.65,1.22-.65,1.14,0,2.04,2.12,2.04,5.94,0,9.45-8.39,15.06-18,15.06Zm1.14-41.94c-4.48,0-7.57,4.89-7.57,10.5,0,.81,.24,1.47,.98,1.47,.49,0,1.06-.16,1.55-.41,3.26-1.95,8.79-3.99,8.79-7.9,0-2.12-1.38-3.66-3.75-3.66Z"/><path class="j" d="M653.93,113.63c-1.55,.08-3.42,.16-5.54,.16s-4.32,0-6.6-.16c-1.14-.08-1.95-.81-2.28-2.2-.98-4.15-1.63-12.78-1.63-23.29,0-14.17,.65-20.6,1.38-23.29,.33-1.3,.9-1.79,1.55-2.04,.98-.24,3.66-.49,6.19-.49,1.38,0,2.69,0,3.66,.24,.9,.16,1.14,.73,1.22,1.71,.08,.98,.49,1.3,.9,1.3s.81-.24,1.38-.65c1.63-1.47,3.34-2.85,5.13-2.85,1.47,0,2.44,1.87,2.44,8.31,0,3.01-.16,5.86-.65,7.33-.41,1.38-1.06,1.71-1.79,1.71-.98,0-2.28-.73-3.83-.73s-2.85,1.55-2.85,7.9c0,10.26,3.42,23.45,3.42,25.08,0,1.06-.49,1.79-2.12,1.95Z"/><path class="j" d="M697.09,102.47c2.85,0,4.07-1.14,4.07-3.18s-1.47-3.42-5.94-5.54c-7.82-3.75-14.17-7.08-14.17-16.61s7.33-15.72,18.89-15.72c5.21,0,10.59,1.3,13.35,2.93,1.22,.73,1.55,1.47,1.55,2.69,0,3.01-1.47,7.98-2.77,10.67-.33,.73-.81,.98-1.3,.98-.41,0-.81-.16-1.14-.49-3.01-2.52-7.74-5.13-11.56-5.13-2.61,0-3.91,1.22-3.91,2.93,0,2.12,1.47,3.09,6.11,5.21,7.25,3.26,15.31,7.08,15.31,17.18,0,10.91-7,16.37-17.67,16.37s-17.67-5.21-17.67-13.6c0-3.34,.81-5.86,1.55-7,.33-.49,.73-.81,1.22-.81,.41,0,.81,.16,1.06,.65,2.36,4.07,7.33,8.47,13.03,8.47Z"/></g><path class="k" d="M402.72,99.6c-31.08,30.72-30.87,37.66-39.7,18.5-4.89-10.6-18.17-25.58-7.01-44.91,11.16-19.33,48.27-46.12,50.66-20.12,1.24,13.47,11.92,30.84-3.95,46.53Z"/><path class="t" d="M374.91,40.11c-10.31-3.4-31.37-17.84-19.9,.06,1.14,1.78,9.58,12.97,19.89,16.37s16.77-2.04,17.44-4.05-7.11-8.98-17.42-12.38Z"/><path class="t" d="M412.72,27.5c3.05-9.88,13.53-20.78-7.18-9.99-1.67,.87-11.15,9.06-13.75,18.38-2.6,9.32,2.51,14.85,4.32,15.36s14.54-17.05,16.61-23.75Z"/></g><g><path class="y" d="M381.33,436.05c-15.53,13.11-51.56,20-99.21,17.64-69.02-3.42-81.26-33.64-77.15-53.54,4.12-19.9,44.42-21.19,92.06-18.53,97.09,5.41,106.36,35.8,84.3,54.43Z"/><path class="x" d="M377.02,431.2c-15.53,13.11-51.56,20-99.21,17.64-69.02-3.42-81.26-33.64-77.15-53.54,4.12-19.9,44.42-21.19,92.06-18.53,97.09,5.41,106.36,35.8,84.3,54.43Z"/><g><path class="m" d="M234.27,423.42c-.91-.07-1.56-.37-1.94-1.75-.9-3.41-1.1-8.98-.73-13.9,.84-11.29,2.21-12.54,12.46-11.78,13.77,1.02,17.21,5.6,16.79,11.2-.68,9.18-7.76,13.27-12.49,12.92-2.79-.21-4.51-3.22-5.55-3.29-.49-.04-.75,.24-.78,.62-.2,2.65,.89,4.43,.84,5.06-.04,.46-.6,.63-1.39,.7-2.26,.13-5.7,.34-7.21,.22Zm8.14-15.11c-.31,4.17,1.01,5.24,2.89,5.38,2.73,.2,4.36-2.81,4.7-7.49,.22-2.95-1.21-4.28-4.24-4.51-2-.15-2.94,1.05-3.36,6.61Z"/><path class="m" d="M278.3,425.72c-1.4-.02-3.04-.14-4.74-.27-1.7-.13-3.46-.26-4.9-.45-.66-.09-1.56-.37-1.61-1.35-.23-3.49-.17-7.55,.14-11.76,.51-6.87,1.67-14.23,3.34-20.29,.25-.87,.92-.95,1.72-.97,1.4,.06,2.74,.12,4.13,.22,1.4,.1,2.79,.25,4.06,.39,.85,.1,1.37,.4,1.33,.99-.05,.72-1.69,8.01-2.27,15.76-.61,8.17,.11,15.76,.02,16.99-.04,.55-.54,.76-1.21,.76Z"/><path class="m" d="M286.05,418.29c.45-6.11,7.55-8.04,15.49-8.25,1.9-.07,2.83-.3,2.88-1.06,.1-1.3-.87-2.22-3.78-2.44-3.15-.24-6.37,.46-9.36,2.01-.38,.23-.76,.33-1.06,.3-.24-.02-.54-.13-.77-.31-1.1-.84-2.09-2.27-1.96-4,.22-2.99,5.67-4.92,14.34-4.27,10.19,.76,13.5,4.56,13.04,10.84-.19,2.57-.8,6.59-1.03,9.71-.18,2.44,.1,5.26,.05,5.93-.05,.72-.57,1.14-1.61,1.19-1.96,.15-8.64-.3-12.64-.6-9.28-.69-14.01-3.46-13.59-9.06Zm17.87-1.68c.09-1.26-.12-1.62-1.16-1.7-3.33-.25-6.16,.9-6.33,3.09-.14,1.85,1.62,2.79,4.71,3.02,1.94,.14,2.47-.41,2.56-1.67l.2-2.74Z"/><path class="m" d="M322.34,421.33c1.7,.13,3.92,.55,5.86,.73,2.18,.16,3.84,.07,3.9-.81,.02-.25-.27-.49-.74-.69-7.03-2.98-10.02-7.1-9.32-16.58,.08-1.14,.6-1.48,2.12-1.45,1.1,0,2.44,.05,3.89,.16,1.46,.11,3.09,.27,4.54,.46,.66,.09,1.26,.26,1.22,.85-.03,.42-.37,1.75-.47,3.01-.39,5.31,2.03,9.64,4.15,9.8,.42,.03,.74-.11,.95-.52,.77-1.38,1.34-4.13,1.54-6.83,.16-2.11-.1-4.41-.06-4.92,.04-.55,.73-.75,1.34-.75,1.04,0,2.61,.11,4.01,.21,1.46,.11,2.85,.21,3.63,.35,1.69,.29,2.1,1.22,2.01,2.48-1.08,14.57-5.85,24.55-28.89,22.84-1.64-.12-1.97-.61-2.02-1.51-.02-.59-.03-1.27,.03-2.03,.1-1.31,.32-2.69,.59-3.9,.18-.71,.81-1,1.72-.93Z"/></g><g><path class="j" d="M232.35,422.08c-.91-.07-1.56-.37-1.94-1.75-.9-3.41-1.1-8.98-.73-13.9,.84-11.29,2.21-12.54,12.46-11.78,13.76,1.02,17.21,5.6,16.79,11.2-.68,9.18-7.76,13.27-12.49,12.92-2.79-.21-4.52-3.22-5.55-3.29-.48-.04-.75,.24-.78,.62-.2,2.65,.89,4.43,.84,5.06-.03,.46-.59,.63-1.39,.7-2.26,.13-5.69,.34-7.21,.23Zm8.14-15.11c-.31,4.17,1.01,5.24,2.89,5.38,2.73,.2,4.36-2.81,4.7-7.48,.22-2.95-1.21-4.28-4.24-4.51-2-.15-2.94,1.05-3.36,6.61Z"/><path class="j" d="M276.39,424.39c-1.4-.02-3.04-.14-4.74-.27-1.7-.13-3.46-.26-4.91-.45-.66-.09-1.56-.37-1.61-1.35-.23-3.49-.17-7.55,.14-11.76,.51-6.87,1.67-14.23,3.34-20.29,.25-.87,.92-.95,1.72-.97,1.4,.06,2.73,.12,4.13,.22,1.4,.1,2.79,.25,4.06,.39,.85,.1,1.37,.4,1.33,.99-.05,.72-1.69,8.01-2.27,15.76-.61,8.17,.11,15.76,.02,16.99-.04,.55-.54,.76-1.21,.76Z"/><path class="j" d="M284.13,416.96c.45-6.11,7.55-8.04,15.49-8.25,1.9-.07,2.83-.3,2.88-1.06,.1-1.31-.87-2.22-3.78-2.44-3.15-.24-6.38,.46-9.36,2.01-.38,.22-.75,.33-1.06,.3-.24-.02-.54-.13-.77-.31-1.1-.84-2.09-2.27-1.96-4,.22-2.99,5.67-4.92,14.34-4.27,10.19,.76,13.5,4.56,13.04,10.84-.19,2.57-.8,6.59-1.03,9.71-.18,2.44,.1,5.26,.05,5.93-.05,.72-.57,1.14-1.61,1.19-1.96,.15-8.64-.3-12.64-.6-9.28-.69-14.01-3.46-13.59-9.06Zm17.87-1.68c.09-1.26-.12-1.62-1.15-1.7-3.33-.25-6.16,.9-6.33,3.09-.14,1.85,1.62,2.79,4.71,3.02,1.94,.14,2.47-.41,2.56-1.67l.2-2.74Z"/><path class="j" d="M320.43,420c1.7,.13,3.92,.55,5.86,.73,2.18,.16,3.84,.07,3.9-.81,.02-.25-.27-.49-.74-.69-7.03-2.98-10.02-7.1-9.32-16.58,.08-1.14,.6-1.48,2.12-1.45,1.1,0,2.44,.05,3.89,.16,1.46,.11,3.09,.27,4.54,.46,.66,.09,1.26,.26,1.22,.85-.03,.42-.37,1.75-.47,3.01-.39,5.31,2.03,9.64,4.15,9.8,.42,.03,.74-.11,.95-.52,.77-1.38,1.34-4.14,1.54-6.83,.16-2.11-.1-4.41-.06-4.92,.04-.55,.73-.75,1.34-.75,1.04,0,2.61,.11,4.01,.21,1.46,.11,2.85,.21,3.63,.36,1.68,.29,2.1,1.22,2.01,2.48-1.08,14.57-5.85,24.55-28.89,22.84-1.64-.12-1.97-.61-2.02-1.51-.02-.59-.03-1.27,.03-2.03,.1-1.31,.32-2.69,.59-3.89,.17-.71,.81-1,1.71-.93Z"/></g></g><g><rect x="574.73" y="261.49" width="93.17" height="4.04" rx="2.02" ry="2.02" transform="translate(-4.35 516.51) rotate(-45)"/><rect x="480.58" y="261.78" width="104.48" height="3.5" rx="1.75" ry="1.75" transform="translate(723.23 826.63) rotate(-135)"/><path class="w" d="M577.63,343.34h0c-8.02,0-14.59-6.56-14.59-14.59,0,0-5.58-31.8,0-56.26,1.79-7.82,6.56-14.59,14.59-14.59h0c8.02,0,14.59,6.56,14.59,14.59,0,0,9.3,42.92,0,56.26-6.87,9.86-6.56,14.59-14.59,14.59Z"/><path class="a`" d="M651.31,358.21c.48-.02,.96-.05,1.43-.11-.38,.08-.76,.13-1.13,.13-.1,0-.2,0-.3-.01Z"/><path class="a`" d="M655.08,325.17c-1-.27-2.04-.46-3.1-.53,.24-.03,.49-.05,.73-.05,.79,0,1.59,.2,2.37,.58Z"/><g><path class="v" d="M653.99,357.37c-.2,0-.4,.01-.61,.01,0,0-78.07,2.08-105.15,.89-.85-.04-47.75-.96-48.57-1.08,.09,0,.17-.02,.26-.03h.01c4.66-.51,10-7.75,10-16.54,0-6.88-2.75-12.67-6.08-15.35-.9-.72-1.98-1.17-3.11-1.37-.12-.02-.24-.04-.37-.06,.59-.06,1.19-.1,1.79-.1,0,0,113.63-8.93,151.21,0,.42,.1,.85,.01,1.27,.05,7.28,16.32-15.76,9.24-9.76,16.02,6.32,7.14,13.17-2.08,9.09,17.55Z"/><path class="a`" d="M664.84,340.72c0,8.79-5.42,15.54-10,16.54h-.01c-.47,.06-.95,.1-1.43,.12-10.81,.61-9.09-8.22-9.09-17.55s-13.47-15.41,9.36-16.01c.26,0,.53,0,.79,.02,.46,.04,.91,.11,1.36,.19,1.08,.2,2.1,.65,2.95,1.34,3.33,2.69,6.08,8.47,6.08,15.35Z"/><path class="a`" d="M509.93,340.62c0,8.79,9.13,14.08-10,16.54h-.01c-.09,.01-.17,.02-.26,.03-.88-.13-1.73-.33-2.56-.6-1.24-.39-2.35-1.11-3.18-2.11-2.62-3.15-4.53-8.65-4.53-14.76s2.49-11.27,5.55-13.94c.73-.64,1.59-1.1,2.52-1.37,.48-.14,.97-.26,1.47-.36,.93-.18,1.9-.17,2.82,.05h.02c.32,.08,.66,.13,.99,.15,9.66,.65,7.17,8.53,7.17,16.36Z"/></g><path class="a`" d="M497.69,324.68c-1.46,.16-2.87,.5-4.19,1.02,.98-.63,1.99-1.02,2.97-1.15,.41,.03,.82,.07,1.23,.14Z"/><g><path d="M679.75,340.21h-26.37v-2.38h26.05v1.74c0,.26,.13,.5,.32,.64Z"/><path d="M681.21,334.01v5.57c0,.17-.06,.33-.15,.46-.05,.07-.11,.13-.18,.18h-1.14c-.2-.14-.32-.38-.32-.64v-5.57c0-.44,.35-.79,.79-.79h.21c.44,0,.79,.35,.79,.79Z"/></g><g><path d="M474.04,341.86h26.37v-2.38h-26.05v1.74c0,.26-.13,.5-.32,.64Z"/><path d="M472.58,335.65v5.57c0,.17,.06,.33,.15,.46,.05,.07,.11,.13,.18,.18h1.14c.2-.14,.32-.38,.32-.64v-5.57c0-.44-.35-.79-.79-.79h-.21c-.44,0-.79,.35-.79,.79Z"/></g><g><circle class="w" cx="576.58" cy="256.57" r="28.43"/><path class="a`" d="M577.48,285.89c-16.66,0-30.21-13.55-30.21-30.21s13.77-27.54,30.21-30.21c21.65-3.52,30.21,13.55,30.21,30.21s-13.55,30.21-30.21,30.21Zm0-56.85c-14.69,0-24.12,12.17-26.64,26.64-3.2,18.36,11.95,26.64,26.64,26.64s26.64-11.95,26.64-26.64-11.95-26.64-26.64-26.64Z"/></g><path class="o" d="M577.61,279.08c-.42,0-.82-.01-1.21-.04-7.68-.53-14.93-4.05-19.4-9.41-3.17-3.81-4.58-8.14-4.09-12.51v.2c-.47,4.13,1.76,8.13,4.77,11.74,4.31,5.18,11.33,8.58,18.77,9.1,5.27,.36,13.29-1.81,18.47-7.44,3.48-3.78,5.5-9.25,4.72-14.29l.29,.68c.82,5.32-.69,10.23-4.36,14.22-5,5.43-12.55,7.77-17.98,7.77Z"/><path class="o" d="M577.27,273.78c-.33,0-.66-.01-.97-.03-6.19-.39-12.02-3-15.62-6.96-2.55-2.82-3.69-6.02-3.29-9.26v.15c-.38,3.05,1.42,6.01,3.84,8.69,3.47,3.83,9.12,6.35,15.12,6.73,4.24,.27,10.7-1.34,14.87-5.5,2.8-2.8,4.43-6.85,3.8-10.57l.24,.5c.66,3.93-.55,7.57-3.51,10.52-4.02,4.02-10.11,5.74-14.48,5.74Z"/><circle class="o" cx="565.27" cy="248.53" r="4.02"/><circle class="o" cx="570.93" cy="261.63" r="4.02"/><circle class="o" cx="576.58" cy="240.5" r="4.02"/><circle class="o" cx="587.9" cy="247.64" r="4.02"/><circle class="o" cx="584.62" cy="261.33" r="4.02"/><circle cx="563.64" cy="247.79" r="1.49"/><circle cx="572.27" cy="262.97" r="1.49"/><circle cx="583.88" cy="262.97" r="1.49"/><circle cx="589.23" cy="247.19" r="1.49"/><circle cx="576.43" cy="239.16" r="1.49"/><path class="q" d="M585.34,277.85l3.24-1.5c1.81,3.93,1.84,7.84,.06,8.66s-4.74-1.73-6.55-5.66c-.07-.15-.14-.3-.2-.45l3.44-1.04Z"/><path class="q" d="M573.15,273.49l3.55,.41c-.5,4.3-2.52,7.65-4.46,7.42s-3.13-3.95-2.63-8.25c.02-.16,.04-.33,.06-.49l3.48,.91Z"/></g></g><g id="d"/><g id="e"/><g id="f"/><g id="g"/><g id="h"/><g id="i"/></svg>